<svg width="22" height="22" viewBox="0 0 22 22" fill="none" xmlns="http://www.w3.org/2000/svg">
<path d="M21.0011 9.62408V10.4241C21.3338 10.4241 21.6317 10.2183 21.7494 9.90717C21.8671 9.59608 21.78 9.24461 21.5307 9.02443L21.0011 9.62408ZM1 9.62408L0.484528 9.01229C0.227559 9.2288 0.133278 9.58282 0.248524 9.89846C0.36377 10.2141 0.663979 10.4241 1 10.4241L1 9.62408ZM11.2355 1L11.7651 0.400354C11.4679 0.137895 11.0233 0.132728 10.7201 0.388209L11.2355 1ZM8.8585 21.8C9.30032 21.8 9.6585 21.4418 9.6585 21C9.6585 20.5582 9.30032 20.2 8.8585 20.2V21.8ZM3.56888 21H2.76888C2.76888 21.4418 3.12706 21.8 3.56888 21.8V21ZM3.56888 9.62405V8.82405C3.12706 8.82405 2.76888 9.18223 2.76888 9.62405H3.56888ZM18.2534 9.62405H19.0534C19.0534 9.18223 18.6952 8.82405 18.2534 8.82405V9.62405ZM18.2534 21V21.8C18.6952 21.8 19.0534 21.4418 19.0534 21H18.2534ZM12.9638 20.2C12.522 20.2 12.1638 20.5582 12.1638 21C12.1638 21.4418 12.522 21.8 12.9638 21.8V20.2ZM8.05846 20.9866C8.05846 21.4284 8.41663 21.7866 8.85846 21.7866C9.30029 21.7866 9.65846 21.4284 9.65846 20.9866H8.05846ZM12.9638 15.5234H13.7638C13.7638 15.0816 13.4056 14.7234 12.9638 14.7234V15.5234ZM12.1638 20.9866C12.1638 21.4284 12.522 21.7866 12.9638 21.7866C13.4056 21.7866 13.7638 21.4284 13.7638 20.9866H12.1638ZM21.0011 8.82408H1V10.4241H21.0011V8.82408ZM1.51547 10.2359L11.751 1.61179L10.7201 0.388209L0.484528 9.01229L1.51547 10.2359ZM10.706 1.59965L20.4716 10.2237L21.5307 9.02443L11.7651 0.400354L10.706 1.59965ZM8.8585 20.2H3.56888V21.8H8.8585V20.2ZM4.36888 21V9.62405H2.76888V21H4.36888ZM3.56888 10.4241H18.2534V8.82405H3.56888V10.4241ZM17.4534 9.62405V21H19.0534V9.62405H17.4534ZM18.2534 20.2H12.9638V21.8H18.2534V20.2ZM9.65846 20.9866V15.5234H8.05846V20.9866H9.65846ZM8.85846 16.3234H12.9638V14.7234H8.85846V16.3234ZM12.1638 15.5234V20.9866H13.7638V15.5234H12.1638Z" fill="#0B6162"/>
</svg>
